<svg width="34" height="34" viewBox="0 0 34 34" fill="none" xmlns="http://www.w3.org/2000/svg">
	<g clip-path="url(#clip0_65_117)">
		<path d="M18.4167 4.25C18.7777 4.2504 19.125 4.38866 19.3876 4.63654C19.6502 4.88441 19.8082 5.22318 19.8293 5.58364C19.8505 5.9441 19.7332 6.29904 19.5015 6.57593C19.2697 6.85282 18.941 7.03077 18.5824 7.07342L18.4167 7.08333H7.08333V26.9167H26.9167V15.5833C26.9171 15.2223 27.0553 14.875 27.3032 14.6124C27.5511 14.3498 27.8898 14.1918 28.2503 14.1707C28.6108 14.1495 28.9657 14.2668 29.2426 14.4985C29.5195 14.7303 29.6974 15.059 29.7401 15.4176L29.75 15.5833V26.9167C29.7502 27.6315 29.4803 28.32 28.9942 28.8441C28.5082 29.3682 27.842 29.6893 27.1292 29.7429L26.9167 29.75H7.08333C6.36852 29.7502 5.68003 29.4803 5.15589 28.9942C4.63175 28.5082 4.31069 27.842 4.25708 27.1292L4.25 26.9167V7.08333C4.24977 6.36852 4.51974 5.68003 5.00579 5.15589C5.49183 4.63175 6.15803 4.31069 6.87083 4.25708L7.08333 4.25H18.4167ZM27.2609 4.73592C27.5159 4.48184 27.8579 4.33433 28.2177 4.32334C28.5775 4.31236 28.9279 4.43872 29.1979 4.67677C29.4679 4.91482 29.6371 5.2467 29.6712 5.60501C29.7054 5.96331 29.6018 6.32118 29.3817 6.60592L29.2641 6.7405L15.2391 20.7641C14.9841 21.0182 14.6421 21.1657 14.2823 21.1767C13.9225 21.1876 13.5721 21.0613 13.3021 20.8232C13.0321 20.5852 12.8629 20.2533 12.8288 19.895C12.7946 19.5367 12.8982 19.1788 13.1183 18.8941L13.2359 18.7609L27.2609 4.73592Z" fill="#295E59" />
	</g>
	<defs>
		<clipPath id="clip0_65_117">
			<rect width="34" height="34" fill="white" />
		</clipPath>
	</defs>
</svg>
