<svg width="11" height="13" viewBox="0 0 11 13" fill="none" xmlns="http://www.w3.org/2000/svg">
	<path d="M7.37496 11.425C7.39996 11.6125 7.33746 11.8125 7.19371 11.9437C7.13589 12.0017 7.06721 12.0477 6.9916 12.079C6.91599 12.1104 6.83494 12.1265 6.75308 12.1265C6.67123 12.1265 6.59018 12.1104 6.51457 12.079C6.43896 12.0477 6.37028 12.0017 6.31246 11.9437L3.80621 9.4375C3.73804 9.37086 3.68621 9.28936 3.65477 9.19937C3.62333 9.10938 3.61313 9.01334 3.62496 8.91875V5.71875L0.63121 1.8875C0.529715 1.75721 0.483918 1.59204 0.503827 1.42808C0.523736 1.26413 0.607732 1.11472 0.73746 1.0125C0.85621 0.925 0.98746 0.875 1.12496 0.875H9.87496C10.0125 0.875 10.1437 0.925 10.2625 1.0125C10.3922 1.11472 10.4762 1.26413 10.4961 1.42808C10.516 1.59204 10.4702 1.75721 10.3687 1.8875L7.37496 5.71875V11.425ZM2.39996 2.125L4.87496 5.2875V8.7375L6.12496 9.9875V5.28125L8.59996 2.125H2.39996Z" fill="black" />
</svg>
