<svg width="35" height="35" viewBox="0 0 35 35" fill="none" xmlns="http://www.w3.org/2000/svg">
<circle cx="17.5" cy="17.5" r="17.5" fill="#005825" fill-opacity="0.75"/>
<mask id="mask0_19_3" style="mask-type:luminance" maskUnits="userSpaceOnUse" x="8" y="6" width="19" height="23">
<path d="M17.5 27.9167C17.5 27.9167 25.3125 21.6667 25.3125 14.8958C25.3125 10.5813 21.8146 7.08334 17.5 7.08334C13.1854 7.08334 9.6875 10.5813 9.6875 14.8958C9.6875 21.6667 17.5 27.9167 17.5 27.9167Z" stroke="white" stroke-width="1.5" stroke-linejoin="round"/>
<path d="M17.5 18.0208C17.9104 18.0208 18.3167 17.94 18.6959 17.783C19.075 17.6259 19.4195 17.3957 19.7097 17.1055C19.9999 16.8154 20.2301 16.4709 20.3871 16.0917C20.5442 15.7126 20.625 15.3062 20.625 14.8958C20.625 14.4855 20.5442 14.0791 20.3871 13.7C20.2301 13.3208 19.9999 12.9763 19.7097 12.6861C19.4195 12.3959 19.075 12.1658 18.6959 12.0087C18.3167 11.8517 17.9104 11.7708 17.5 11.7708C16.6712 11.7708 15.8763 12.1001 15.2903 12.6861C14.7042 13.2722 14.375 14.067 14.375 14.8958C14.375 15.7246 14.7042 16.5195 15.2903 17.1055C15.8763 17.6916 16.6712 18.0208 17.5 18.0208Z" stroke="white" stroke-width="1.5" stroke-linejoin="round"/>
</mask>
<g mask="url(#mask0_19_3)">
<path d="M5 5H30V30H5V5Z" fill="white"/>
</g>
</svg>
