<svg width="25" height="24" viewBox="0 0 25 24" fill="none" xmlns="http://www.w3.org/2000/svg">
	<path d="M21.6351 18.448C21.6255 18.7932 21.5476 19.1329 21.4059 19.4469C21.2642 19.7609 21.0616 20.0429 20.8102 20.2761C20.5588 20.5093 20.2638 20.689 19.9425 20.8044C19.6212 20.9198 19.2804 20.9687 18.9401 20.948C16.8147 20.96 14.6893 20.948 12.5639 20.948C12.433 20.948 12.3074 20.8953 12.2149 20.8016C12.1223 20.7078 12.0703 20.5806 12.0703 20.448C12.0703 20.3154 12.1223 20.1882 12.2149 20.0945C12.3074 20.0007 12.433 19.948 12.5639 19.948C14.7357 19.948 16.9075 19.98 19.0793 19.948C20.1721 19.932 20.6479 19.1 20.6479 18.11V5.64701C20.6555 5.33228 20.5681 5.02269 20.3974 4.75964C20.2266 4.49659 19.9806 4.29262 19.6923 4.17501C19.3515 4.08079 18.9969 4.04863 18.6449 4.08001H12.5639C12.433 4.08001 12.3074 4.02734 12.2149 3.93357C12.1223 3.8398 12.0703 3.71262 12.0703 3.58001C12.0703 3.44741 12.1223 3.32023 12.2149 3.22646C12.3074 3.13269 12.433 3.08001 12.5639 3.08001C14.7594 3.08001 16.9717 2.99501 19.1652 3.08001C19.5011 3.08862 19.8319 3.16481 20.1385 3.30416C20.4451 3.4435 20.7212 3.64322 20.9509 3.89168C21.1806 4.14015 21.3591 4.4324 21.4763 4.75144C21.5934 5.07047 21.6467 5.40991 21.6331 5.75001L21.6351 18.448Z" fill="white" stroke="white" stroke-width="0.3" />
	<path d="M4.07124 11.663C3.98784 11.7449 3.93901 11.8564 3.93501 11.974C3.93501 11.989 3.93501 12.002 3.92909 12.017C3.92317 12.032 3.92909 12.044 3.93501 12.058C3.93896 12.1759 3.98778 12.2877 4.07124 12.37L7.6932 16.039C7.7863 16.1301 7.91098 16.1805 8.0404 16.1794C8.16981 16.1782 8.29361 16.1256 8.38513 16.0329C8.47664 15.9402 8.52855 15.8148 8.52968 15.6837C8.5308 15.5526 8.48105 15.4263 8.39114 15.332L5.61223 12.516H16.2165C16.3474 12.516 16.473 12.4633 16.5655 12.3696C16.6581 12.2758 16.7101 12.1486 16.7101 12.016C16.7101 11.8834 16.6581 11.7562 16.5655 11.6625C16.473 11.5687 16.3474 11.516 16.2165 11.516H5.61223L8.39114 8.70002C8.48105 8.60572 8.5308 8.47941 8.52968 8.34832C8.52855 8.21722 8.47664 8.09181 8.38513 7.99911C8.29361 7.9064 8.16981 7.85382 8.0404 7.85268C7.91098 7.85154 7.7863 7.90194 7.6932 7.99302L4.07124 11.663Z" fill="white" stroke="white" stroke-width="0.3" />
</svg>
