<svg width="10" height="10" viewBox="0 0 10 10" fill="none" xmlns="http://www.w3.org/2000/svg">
	<g clip-path="url(#clip0_86_655)">
		<path d="M4.76562 1.5625V0.625C4.76562 0.56284 4.79032 0.503226 4.83427 0.459272C4.87823 0.415318 4.93784 0.390625 5 0.390625C5.06216 0.390625 5.12177 0.415318 5.16573 0.459272C5.20968 0.503226 5.23438 0.56284 5.23438 0.625V1.5625C5.23438 1.62466 5.20968 1.68427 5.16573 1.72823C5.12177 1.77218 5.06216 1.79688 5 1.79688C4.93784 1.79688 4.87823 1.77218 4.83427 1.72823C4.79032 1.68427 4.76562 1.62466 4.76562 1.5625ZM7.42188 5C7.42188 5.479 7.27983 5.94725 7.01372 6.34552C6.7476 6.7438 6.36935 7.05421 5.92681 7.23752C5.48427 7.42083 4.99731 7.46879 4.52752 7.37534C4.05772 7.28189 3.62618 7.05123 3.28748 6.71252C2.94877 6.37382 2.71811 5.94228 2.62466 5.47248C2.53121 5.00269 2.57917 4.51573 2.76248 4.07319C2.94579 3.63065 3.2562 3.2524 3.65448 2.98628C4.05275 2.72017 4.521 2.57812 5 2.57812C5.6421 2.57885 6.25769 2.83424 6.71173 3.28828C7.16576 3.74231 7.42115 4.3579 7.42188 5ZM6.95312 5C6.95312 4.61371 6.83858 4.23609 6.62396 3.9149C6.40935 3.59371 6.10432 3.34338 5.74743 3.19555C5.39054 3.04772 4.99783 3.00904 4.61896 3.0844C4.2401 3.15977 3.89208 3.34578 3.61893 3.61893C3.34578 3.89208 3.15977 4.2401 3.0844 4.61896C3.00904 4.99783 3.04772 5.39054 3.19555 5.74743C3.34338 6.10432 3.59371 6.40935 3.9149 6.62396C4.23609 6.83858 4.61371 6.95312 5 6.95312C5.51781 6.9525 6.01424 6.74653 6.38038 6.38038C6.74653 6.01424 6.9525 5.51781 6.95312 5ZM2.33437 2.66562C2.35583 2.68865 2.38171 2.70712 2.41046 2.71993C2.43921 2.73274 2.47024 2.73963 2.50171 2.74019C2.53318 2.74074 2.56444 2.73495 2.59362 2.72316C2.62281 2.71138 2.64932 2.69383 2.67157 2.67157C2.69383 2.64932 2.71138 2.62281 2.72316 2.59362C2.73495 2.56444 2.74074 2.53318 2.74019 2.50171C2.73963 2.47024 2.73274 2.43921 2.71993 2.41046C2.70712 2.38171 2.68865 2.35583 2.66562 2.33437L2.04063 1.70937C1.9962 1.66797 1.93743 1.64544 1.87671 1.64651C1.81599 1.64758 1.75806 1.67218 1.71512 1.71512C1.67218 1.75806 1.64758 1.81599 1.64651 1.87671C1.64544 1.93743 1.66797 1.9962 1.70937 2.04063L2.33437 2.66562ZM2.33437 7.33437L1.70937 7.95937C1.68635 7.98083 1.66788 8.00671 1.65507 8.03546C1.64226 8.06421 1.63537 8.09524 1.63482 8.12671C1.63426 8.15818 1.64005 8.18944 1.65184 8.21862C1.66362 8.24781 1.68117 8.27432 1.70343 8.29657C1.72568 8.31883 1.75219 8.33638 1.78138 8.34816C1.81056 8.35995 1.84182 8.36574 1.87329 8.36518C1.90476 8.36463 1.93579 8.35774 1.96454 8.34493C1.99329 8.33212 2.01917 8.31365 2.04063 8.29063L2.66562 7.66563C2.68865 7.64417 2.70712 7.61829 2.71993 7.58954C2.73274 7.56079 2.73963 7.52976 2.74019 7.49829C2.74074 7.46682 2.73495 7.43556 2.72316 7.40638C2.71138 7.37719 2.69383 7.35068 2.67157 7.32843C2.64932 7.30617 2.62281 7.28862 2.59362 7.27684C2.56444 7.26505 2.53318 7.25926 2.50171 7.25982C2.47024 7.26037 2.43921 7.26726 2.41046 7.28007C2.38171 7.29288 2.35583 7.31135 2.33437 7.33437ZM7.5 2.73438C7.56214 2.73432 7.62171 2.70959 7.66563 2.66562L8.29063 2.04063C8.33203 1.9962 8.35456 1.93743 8.35349 1.87671C8.35242 1.81599 8.32782 1.75806 8.28488 1.71512C8.24194 1.67218 8.18401 1.64758 8.12329 1.64651C8.06257 1.64544 8.0038 1.66797 7.95937 1.70937L7.33437 2.33437C7.30164 2.36715 7.27935 2.4089 7.27032 2.45433C7.2613 2.49977 7.26594 2.54686 7.28366 2.58966C7.30138 2.63246 7.33139 2.66905 7.3699 2.69481C7.4084 2.72057 7.45367 2.73433 7.5 2.73438ZM7.66563 7.33437C7.6212 7.29297 7.56243 7.27044 7.50171 7.27151C7.44099 7.27258 7.38306 7.29718 7.34012 7.34012C7.29718 7.38306 7.27258 7.44099 7.27151 7.50171C7.27044 7.56243 7.29297 7.6212 7.33437 7.66563L7.95937 8.29063C8.0038 8.33203 8.06257 8.35456 8.12329 8.35349C8.18401 8.35242 8.24194 8.32782 8.28488 8.28488C8.32782 8.24194 8.35242 8.18401 8.35349 8.12329C8.35456 8.06257 8.33203 8.0038 8.29063 7.95937L7.66563 7.33437ZM1.79688 5C1.79688 4.93784 1.77218 4.87823 1.72823 4.83427C1.68427 4.79032 1.62466 4.76562 1.5625 4.76562H0.625C0.56284 4.76562 0.503226 4.79032 0.459272 4.83427C0.415318 4.87823 0.390625 4.93784 0.390625 5C0.390625 5.06216 0.415318 5.12177 0.459272 5.16573C0.503226 5.20968 0.56284 5.23438 0.625 5.23438H1.5625C1.62466 5.23438 1.68427 5.20968 1.72823 5.16573C1.77218 5.12177 1.79688 5.06216 1.79688 5ZM5 8.20312C4.93784 8.20312 4.87823 8.22782 4.83427 8.27177C4.79032 8.31573 4.76562 8.37534 4.76562 8.4375V9.375C4.76562 9.43716 4.79032 9.49677 4.83427 9.54073C4.87823 9.58468 4.93784 9.60938 5 9.60938C5.06216 9.60938 5.12177 9.58468 5.16573 9.54073C5.20968 9.49677 5.23438 9.43716 5.23438 9.375V8.4375C5.23438 8.37534 5.20968 8.31573 5.16573 8.27177C5.12177 8.22782 5.06216 8.20312 5 8.20312ZM9.375 4.76562H8.4375C8.37534 4.76562 8.31573 4.79032 8.27177 4.83427C8.22782 4.87823 8.20312 4.93784 8.20312 5C8.20312 5.06216 8.22782 5.12177 8.27177 5.16573C8.31573 5.20968 8.37534 5.23438 8.4375 5.23438H9.375C9.43716 5.23438 9.49677 5.20968 9.54073 5.16573C9.58468 5.12177 9.60938 5.06216 9.60938 5C9.60938 4.93784 9.58468 4.87823 9.54073 4.83427C9.49677 4.79032 9.43716 4.76562 9.375 4.76562Z" fill="black" stroke="black" stroke-width="0.5" />
	</g>
	<defs>
		<clipPath id="clip0_86_655">
			<rect width="10" height="10" fill="white" />
		</clipPath>
	</defs>
</svg>
