<svg width="35" height="35" viewBox="0 0 35 35" fill="none" xmlns="http://www.w3.org/2000/svg">
	<circle cx="17.5" cy="17.5" r="17.5" fill="#005825" fill-opacity="0.75" />
	<g clip-path="url(#clip0_25_16)">
		<path fill-rule="evenodd" clip-rule="evenodd" d="M9.07599 11.617C9.15174 11.4343 9.27995 11.2782 9.44442 11.1684C9.60889 11.0585 9.80223 11 9.99999 11H20C20.9192 11 21.8295 11.1811 22.6788 11.5328C23.5281 11.8846 24.2997 12.4002 24.9497 13.0503C25.5998 13.7003 26.1154 14.4719 26.4672 15.3212C26.8189 16.1705 27 17.0807 27 18C27 18.9193 26.8189 19.8295 26.4672 20.6788C26.1154 21.5281 25.5998 22.2997 24.9497 22.9497C24.2997 23.5998 23.5281 24.1154 22.6788 24.4672C21.8295 24.8189 20.9192 25 20 25H11C10.7348 25 10.4804 24.8946 10.2929 24.7071C10.1054 24.5196 9.99999 24.2652 9.99999 24C9.99999 23.7348 10.1054 23.4804 10.2929 23.2929C10.4804 23.1054 10.7348 23 11 23H20C21.3261 23 22.5978 22.4732 23.5355 21.5355C24.4732 20.5979 25 19.3261 25 18C25 16.6739 24.4732 15.4021 23.5355 14.4645C22.5978 13.5268 21.3261 13 20 13H12.414L14.207 14.793C14.3892 14.9816 14.4899 15.2342 14.4877 15.4964C14.4854 15.7586 14.3802 16.0094 14.1948 16.1948C14.0094 16.3802 13.7586 16.4854 13.4964 16.4877C13.2342 16.49 12.9816 16.3892 12.793 16.207L9.29299 12.707C9.15306 12.5672 9.05775 12.3889 9.01913 12.1949C8.9805 12.0009 9.00029 11.7998 9.07599 11.617Z" fill="white" />
	</g>
	<defs>
		<clipPath id="clip0_25_16">
			<rect width="24" height="24" fill="white" transform="translate(6 6)" />
		</clipPath>
	</defs>
</svg>
