<svg width="16" height="16" viewBox="0 0 16 16" fill="none" xmlns="http://www.w3.org/2000/svg">
	<path d="M8.64071 0.234009C8.85311 0.234244 9.0574 0.315575 9.21185 0.461382C9.36629 0.60719 9.45924 0.80647 9.47168 1.0185C9.48413 1.23054 9.41514 1.43932 9.27882 1.6022C9.14249 1.76508 8.94912 1.86976 8.73821 1.89484L8.64071 1.90068H1.97404V13.5673H13.6407V6.90068C13.6409 6.68828 13.7223 6.48398 13.8681 6.32953C14.0139 6.17509 14.2132 6.08215 14.4252 6.0697C14.6372 6.05725 14.846 6.12624 15.0089 6.26256C15.1718 6.39889 15.2765 6.59226 15.3015 6.80318L15.3074 6.90068V13.5673C15.3075 13.9878 15.1487 14.3928 14.8628 14.7011C14.5769 15.0094 14.185 15.1983 13.7657 15.2298L13.6407 15.234H1.97404C1.55356 15.2341 1.14857 15.0753 0.84025 14.7894C0.531932 14.5035 0.343076 14.1116 0.31154 13.6923L0.307373 13.5673V1.90068C0.30724 1.4802 0.466045 1.0752 0.751954 0.766885C1.03786 0.458568 1.42974 0.269712 1.84904 0.238176L1.97404 0.234009H8.64071ZM13.8432 0.519842C13.9932 0.370385 14.1944 0.283614 14.406 0.277152C14.6177 0.27069 14.8238 0.345021 14.9826 0.485049C15.1414 0.625077 15.241 0.820302 15.261 1.03107C15.2811 1.24184 15.2202 1.45235 15.0907 1.61984L15.0215 1.69901L6.77154 9.94817C6.62157 10.0976 6.42034 10.1844 6.20872 10.1909C5.9971 10.1973 5.79095 10.123 5.63214 9.98297C5.47334 9.84294 5.37379 9.64772 5.35371 9.43695C5.33363 9.22618 5.39453 9.01567 5.52404 8.84818L5.59321 8.76984L13.8432 0.519842Z" fill="#295E59" />
</svg>
