<svg width="35" height="35" viewBox="0 0 35 35" fill="none" xmlns="http://www.w3.org/2000/svg">
<circle cx="17.5" cy="17.5" r="17.5" fill="#005825" fill-opacity="0.75"/>
<path d="M17.15 21.9333C18.233 21.9333 19.2716 21.5031 20.0373 20.7373C20.8031 19.9716 21.2333 18.933 21.2333 17.85C21.2333 16.767 20.8031 15.7284 20.0373 14.9626C19.2716 14.1969 18.233 13.7667 17.15 13.7667C16.067 13.7667 15.0284 14.1969 14.2626 14.9626C13.4969 15.7284 13.0667 16.767 13.0667 17.85C13.0667 18.933 13.4969 19.9716 14.2626 20.7373C15.0284 21.5031 16.067 21.9333 17.15 21.9333Z" stroke="white" stroke-width="1.5" stroke-linecap="round" stroke-linejoin="round"/>
<path d="M7.96249 21.9333V13.7667C7.96249 12.413 8.50025 11.1147 9.45747 10.1575C10.4147 9.20026 11.713 8.6625 13.0667 8.6625H21.2333C22.587 8.6625 23.8853 9.20026 24.8425 10.1575C25.7997 11.1147 26.3375 12.413 26.3375 13.7667V21.9333C26.3375 23.287 25.7997 24.5853 24.8425 25.5425C23.8853 26.4997 22.587 27.0375 21.2333 27.0375H13.0667C11.713 27.0375 10.4147 26.4997 9.45747 25.5425C8.50025 24.5853 7.96249 23.287 7.96249 21.9333Z" stroke="white" stroke-width="2"/>
<path d="M22.7646 12.2456L22.7748 12.2344" stroke="white" stroke-width="1.5" stroke-linecap="round" stroke-linejoin="round"/>
</svg>
