<svg width="9" height="10" viewBox="0 0 9 10" fill="none" xmlns="http://www.w3.org/2000/svg">
	<path d="M4.38389 1.60299C4.2003 1.92098 4.06381 2.25114 3.97442 2.59345C3.88504 2.93577 3.84346 3.27862 3.84968 3.62201C3.85591 3.9654 3.90156 4.30298 3.98665 4.63477C4.07174 4.96656 4.20035 5.28287 4.37246 5.58372C4.54458 5.88456 4.75379 6.16021 5.0001 6.41067C5.24642 6.66113 5.52904 6.87994 5.84799 7.06709C6.14794 7.24027 6.46439 7.37185 6.79734 7.46184C7.13028 7.55182 7.46875 7.59839 7.81274 7.60154C7.60999 7.86938 7.3817 8.10594 7.12787 8.31121C6.87404 8.51648 6.60309 8.68631 6.31501 8.82069C6.02693 8.95507 5.72754 9.05436 5.41684 9.11855C5.10614 9.18273 4.7919 9.20879 4.47411 9.19672C4.15632 9.18464 3.84015 9.13591 3.5256 9.05053C3.21104 8.96515 2.90782 8.83669 2.61594 8.66517C2.29795 8.48157 2.01467 8.26389 1.7661 8.01213C1.51753 7.76037 1.3101 7.48424 1.1438 7.18375C0.977491 6.88325 0.848237 6.56806 0.756033 6.23818C0.663829 5.9083 0.617044 5.57006 0.615681 5.22347C0.614317 4.87687 0.657676 4.53354 0.745756 4.19348C0.833837 3.85342 0.969198 3.52261 1.15184 3.20106C1.33153 2.88984 1.54725 2.60994 1.79901 2.36137C2.05078 2.11281 2.32708 1.90247 2.62792 1.73035C2.92877 1.55823 3.25172 1.42594 3.59678 1.33348C3.94185 1.24102 4.29331 1.19737 4.65119 1.20251C4.6018 1.26722 4.55532 1.3321 4.51175 1.39715C4.46818 1.46221 4.42556 1.53082 4.38389 1.60299ZM1.58485 3.45106C1.42339 3.73072 1.30453 4.01993 1.22826 4.3187C1.15199 4.61746 1.11416 4.91737 1.11475 5.21842C1.11535 5.51947 1.15538 5.81472 1.23485 6.10417C1.31431 6.39361 1.42727 6.66932 1.57372 6.93129C1.72016 7.19326 1.90223 7.43519 2.11992 7.6571C2.33761 7.87901 2.58629 8.07069 2.86594 8.23215C3.17266 8.40924 3.49527 8.53535 3.83377 8.61051C4.17227 8.68566 4.51131 8.71301 4.85089 8.69256C5.19046 8.67211 5.52381 8.59995 5.85092 8.47607C6.17804 8.3522 6.48049 8.18251 6.75826 7.96701C6.3501 7.86668 5.96335 7.71104 5.59799 7.5001C5.26872 7.31 4.97351 7.08694 4.71237 6.83092C4.45122 6.5749 4.2254 6.29417 4.03489 5.98872C3.84438 5.68327 3.69288 5.35975 3.58038 5.01815C3.46787 4.67655 3.39611 4.3269 3.36508 3.96919C3.33405 3.61148 3.34743 3.25235 3.40524 2.8918C3.46305 2.53126 3.56671 2.17463 3.71622 1.82192C3.26088 1.94393 2.85106 2.14334 2.48676 2.42015C2.12247 2.69697 1.82183 3.0406 1.58485 3.45106Z" fill="black" stroke="black" stroke-width="0.5" />
</svg>
