<svg width="35" height="35" viewBox="0 0 35 35" fill="none" xmlns="http://www.w3.org/2000/svg">
	<circle cx="17.5" cy="17.5" r="17.5" fill="#295E59" />
	<path d="M8.5 24.9565C8.5 23.44 8.97109 22.0035 9.78543 20.9599C10.5975 19.9193 11.6685 19.3695 12.75 19.3695H22.25C23.3315 19.3695 24.4025 19.9193 25.2146 20.9599C26.0289 22.0035 26.5 23.44 26.5 24.9565C26.5 25.6657 26.2791 26.3281 25.9102 26.8009C25.5435 27.2708 25.0766 27.4999 24.625 27.4999H10.375C9.9234 27.4999 9.45646 27.2708 9.0898 26.8009C8.72086 26.3281 8.5 25.6657 8.5 24.9565Z" stroke="white" stroke-linejoin="round" />
	<path d="M21.75 11.5652C21.75 13.7919 19.8661 15.6304 17.5 15.6304C15.1339 15.6304 13.25 13.7919 13.25 11.5652C13.25 9.33857 15.1339 7.5 17.5 7.5C19.8661 7.5 21.75 9.33857 21.75 11.5652Z" stroke="white" />
</svg>
