<svg width="16" height="16" viewBox="0 0 16 16" fill="none" xmlns="http://www.w3.org/2000/svg">
	<path d="M14.6925 15.325C15.0759 15.7084 15.6675 15.1167 15.2842 14.7417L12.1592 11.6084C13.2554 10.3955 13.8613 8.81824 13.8592 7.18338C13.8592 3.52505 10.8842 0.550049 7.22586 0.550049C3.56753 0.550049 0.592529 3.52505 0.592529 7.18338C0.592529 10.8417 3.56753 13.8167 7.22586 13.8167C8.87586 13.8167 10.4009 13.2084 11.5675 12.2L14.6925 15.325ZM1.42503 7.18338C1.42503 3.98338 4.03336 1.38338 7.22503 1.38338C10.425 1.38338 13.025 3.98338 13.025 7.18338C13.025 10.3834 10.425 12.9834 7.22503 12.9834C4.03336 12.9834 1.42503 10.3834 1.42503 7.18338Z" fill="black" />
</svg>
